<svg xmlns="http://www.w3.org/2000/svg" viewBox="0 0 761 382" width="761" height="382">
	<defs>
		<clipPath clipPathUnits="userSpaceOnUse" id="cp1">
			<path d="M-249 0L761 0L761 401L-249 401Z" />
		</clipPath>
	</defs>
	<style>
		tspan { white-space:pre }
		.shp0 { fill: #2c2e35 } 
	</style>
	<g id="Page 1" clip-path="url(#cp1)">
		<path id="Path 2" fill-rule="evenodd" class="shp0" d="M173.55 281.88C176.4 287.78 177.82 295.08 177.82 303.78C177.82 312.48 175.92 320.69 172.12 328.34C168.3 336.01 162.53 342.65 154.8 348.3C146.58 354.06 136.73 358.53 125.28 361.73C113.89 364.91 99.74 366.51 82.93 366.51C55.4 366.51 34.83 362.5 21.18 354.47C7.56 346.43 0.74 334.69 0.74 319.23C0.74 306.72 5.63 296.86 15.48 289.61C25.31 282.38 37.84 278.46 53.07 277.84L53.07 275.26C49.38 274.16 45.57 272.77 41.64 271.13C37.7 269.48 34.34 267.53 31.5 265.32C28.3 262.75 25.73 259.72 23.77 256.22C21.79 252.72 20.8 248.39 20.8 243.25C20.8 236.76 23.14 230.78 27.71 225.32C32.34 219.86 39.32 215.16 48.63 211.23L48.63 208.47C36.86 202.95 27.69 195.88 21.18 187.22C14.68 178.58 11.44 168.56 11.44 157.16C11.44 139.98 17.83 125.87 30.68 114.84C43.55 103.79 59.95 98.28 79.96 98.28C85.5 98.28 90.98 98.83 96.46 99.94C101.91 101.04 107.49 102.45 113.13 104.16L176.53 104.16L176.53 121.82L133.79 121.82L133.79 122.93C138.32 128.21 141.7 134.04 143.91 140.4C146.14 146.78 147.24 153.04 147.24 159.17C147.24 175.11 140.76 188.6 127.79 199.65C114.82 210.68 99.74 216.2 82.56 216.2L60.27 216.2C57.42 217.19 54.48 218.97 51.42 221.53C48.34 224.12 46.8 227.61 46.8 232.03C46.8 236.57 48.1 240.03 50.67 242.42C53.25 244.83 56.39 246.44 60.08 247.28C63.62 248.29 67.77 248.88 72.51 249.14C77.22 249.39 82.13 249.59 87.16 249.69C92.57 249.82 99.94 250.19 109.34 250.78C118.76 251.41 125.41 251.78 129.35 251.89C134.99 252.15 140.7 253.49 146.39 255.95C152.1 258.4 157.3 261.77 161.97 266.06C166.89 270.72 170.74 276 173.55 281.88ZM56.1 190.64C62.06 199.23 69.75 203.51 79.23 203.51C89.82 203.51 97.93 199.25 103.64 190.72C109.34 182.21 112.23 171.43 112.23 158.43C112.23 144.08 109.29 132.66 103.49 124.12C97.63 115.6 89.42 111.34 78.86 111.34C73.08 111.34 68.15 112.52 64.06 114.93C59.89 117.32 56.58 120.72 53.97 125.14C51.53 129.19 49.78 134.06 48.73 139.77C47.69 145.48 47.17 151.33 47.17 157.34C47.17 170.95 50.13 182.06 56.1 190.64ZM147.6 310.58C147.6 303.71 146.02 298.08 142.82 293.66C139.62 289.24 134.76 286.24 128.26 284.64C124.79 284.15 117.76 283.6 107.04 282.98C96.36 282.38 83.96 282.07 69.83 282.07C56.58 284.64 47.14 288.97 41.56 295.03C35.97 301.12 33.16 308.94 33.16 318.5C33.16 322.8 34.07 326.9 35.92 330.82C37.76 334.74 40.96 338.37 45.53 341.69C49.81 344.87 55.59 347.48 62.84 349.49C70.06 351.52 78.93 352.55 89.37 352.55C107.44 352.55 121.65 349.06 132.02 342.13C142.41 335.22 147.6 324.7 147.6 310.58ZM315.96 253.93L315.96 160.65C315.96 147.76 312.91 137.83 306.79 130.84C300.7 123.85 293.29 120.36 284.55 120.36C278.15 120.36 272.22 121.37 266.73 123.4C261.23 125.41 256.34 127.89 252.03 130.84C247.86 133.91 244.66 136.98 242.43 140.04C240.23 143.11 238.5 145.67 237.28 147.76L237.28 252.09C237.28 256.25 238.09 259.69 239.75 262.39C241.4 265.09 243.96 267.16 247.4 268.65C250.11 269.87 252.89 270.78 255.78 271.4C258.67 272.02 261.84 272.44 265.29 272.68L265.29 284.82L176.26 284.82L176.26 272.68C179.07 272.44 182 272.16 185.05 271.86C188.1 271.56 190.66 271.1 192.74 270.48C196.14 269.37 198.73 267.44 200.41 264.69C202.13 261.91 202.99 258.33 202.99 253.91L202.99 42.56C202.99 38.38 202.04 34.21 200.12 30.03C198.24 25.86 195.76 22.72 192.67 20.64C190.46 19.05 186.55 17.92 180.97 17.24C175.37 16.57 170.88 16.1 167.44 15.85L167.44 4.09L234.68 0.04L237.28 2.8L237.28 129.36L238 129.36C242.06 125.33 245.74 121.74 249.08 118.61C252.39 115.49 256.77 112.19 262.19 108.77C266.87 105.83 272.36 103.37 278.69 101.4C285.05 99.44 292.15 98.45 300.03 98.45C316.27 98.45 328.74 103.59 337.5 113.82C346.21 124.08 350.59 138.83 350.59 158.08L350.59 252.45C350.59 256.76 351.35 260.21 352.9 262.85C354.44 265.49 357.02 267.53 360.61 269.01C363.47 270.1 366.03 270.94 368.33 271.48C370.59 272.04 373.62 272.44 377.32 272.68L377.32 284.82L287.92 284.82L287.92 272.68C290.76 272.44 293.89 272.19 297.35 271.96C300.77 271.71 303.59 271.22 305.82 270.48C309.26 269.37 311.79 267.44 313.46 264.69C315.12 261.92 315.96 258.33 315.96 253.93ZM492.59 276.92C484.6 280.22 477.05 283.02 469.93 285.29C462.77 287.55 454.1 288.69 443.77 288.69C428.51 288.69 417.82 284.86 411.62 277.2C405.39 269.53 402.3 258.71 402.3 244.72L402.3 121.82L369.47 121.82L369.47 104.16L403.04 104.16L403.04 47.68L436.59 47.68L436.59 104.16L488.72 104.16L488.72 121.82L436.96 121.82L436.96 223.2C436.96 230.81 437.22 237.15 437.77 242.23C438.33 247.33 439.64 251.79 441.75 255.57C443.72 259.14 446.66 261.82 450.58 263.67C454.51 265.51 459.8 266.43 466.42 266.43C469.48 266.43 474.01 266.15 479.96 265.61C485.94 265.05 490.11 264.35 492.59 263.5L492.59 276.92ZM670.8 175.56C679.82 186.09 684.34 199.46 684.34 215.65C684.34 236.26 675.44 253.98 657.62 268.82C639.82 283.67 616.42 291.09 587.41 291.09C560.27 291.09 538.52 284.28 522.18 270.66C505.85 257.05 497.66 239.51 497.66 218.04C497.66 202.23 502.48 189.02 512.13 178.41C521.81 167.79 536.05 158.8 555 151.44C539.37 142.74 527.7 133.18 519.97 122.75C512.22 112.33 508.37 100.55 508.37 87.43C508.37 67.43 516.88 50.69 533.88 37.2C550.89 23.71 571.25 16.96 594.95 16.96C618.69 16.96 637.87 23.33 652.57 36.09C667.21 48.85 674.58 64.85 674.58 84.12C674.58 96.5 670.53 108.25 662.41 119.34C654.31 130.44 642.41 139.55 626.66 146.67C647.04 155.36 661.8 165 670.8 175.56ZM559.96 111.34C570.04 120.29 587.97 129.86 613.78 140.05C622.98 134.15 629.61 126.38 633.68 116.68C637.72 106.98 639.75 95.46 639.75 82.08C639.75 67.12 635.3 54.95 626.39 45.57C617.47 36.19 606.09 31.5 592.21 31.5C578.35 31.5 566.95 36 558.12 45.02C549.25 54.04 544.85 65.23 544.85 78.59C544.85 91.47 549.89 102.39 559.96 111.34ZM647.48 224.3C647.48 216.58 645.82 209.79 642.53 203.98C639.22 198.15 634.39 192.85 628.13 188.05C622.13 183.41 613.74 178.53 602.98 173.45C592.23 168.33 580.61 163.17 568.07 157.88C556.26 164.26 547.59 172.39 542.09 182.28C536.55 192.13 533.78 203.39 533.78 216.02C533.78 234.06 539.09 248.61 549.72 259.72C560.35 270.81 574.53 276.38 592.21 276.38C609.17 276.38 622.64 271.46 632.57 261.66C642.53 251.84 647.48 239.39 647.48 224.3ZM761.1 263.67C761.1 270.54 758.64 276.39 753.65 281.25C748.68 286.09 742.75 288.51 735.87 288.51C728.98 288.51 723.04 286.09 718.08 281.25C713.11 276.39 710.62 270.54 710.62 263.67C710.62 256.81 713.11 250.88 718.08 245.91C723.04 240.96 728.98 238.46 735.87 238.46C742.75 238.46 748.68 240.96 753.65 245.91C758.64 250.88 761.1 256.81 761.1 263.67ZM289.75 341.63C288.54 341.75 287.22 342.26 285.82 343.15C284.41 344.05 283.39 345.4 282.76 347.19C281.31 351.45 279.94 355.49 278.65 359.3C277.36 363.11 275.92 367.39 274.32 372.14C273.8 373.65 273.27 375.27 272.74 377.01C272.2 378.75 271.72 380.41 271.28 382.01L267.57 382.01L256.01 350.42L244.43 382.01L240.86 382.01C238.69 375.57 236.56 369.19 234.49 362.86C232.42 356.53 230.59 351.02 228.99 346.33C228.53 344.96 227.65 343.89 226.34 343.11C225.04 342.33 223.78 341.86 222.56 341.72L222.56 338.85L241.67 338.85L241.67 341.89C240.72 341.92 239.68 342.08 238.57 342.37C237.45 342.66 236.89 343.14 236.89 343.8C236.89 343.92 236.94 344.17 237.05 344.54C237.15 344.92 237.27 345.33 237.42 345.76C238.34 348.8 239.39 352.19 240.56 355.93C241.74 359.68 243.25 364.54 245.1 370.53L256.03 339.72L260.24 339.72L271.41 370.1C272.65 366.22 273.89 362.47 275.13 358.84C276.36 355.21 277.44 351.81 278.37 348.63C278.57 347.87 278.77 347.19 278.96 346.56C279.14 345.94 279.24 345.33 279.24 344.72C279.24 344.2 279.01 343.73 278.54 343.33C278.08 342.92 277.51 342.59 276.85 342.33C276.27 342.09 275.64 341.92 274.96 341.81C274.28 341.69 273.78 341.63 273.46 341.63L273.46 338.85L289.75 338.85L289.75 341.63Z" />
	</g>
</svg>